<svg xmlns="http://www.w3.org/2000/svg" width="42" height="42" viewBox="0 0 42 42">
  <g id="Group_3379" data-name="Group 3379" transform="translate(2497 1970)">
    <rect id="Rectangle_2775" data-name="Rectangle 2775" width="42" height="42" transform="translate(-2497 -1970)" fill="none"/>
    <g id="Group_3364" data-name="Group 3364" transform="translate(-3701 -488.579)">
      <path id="Path_20405" data-name="Path 20405" d="M1244-1454.976a7.7,7.7,0,0,1-.547,1.237,2.8,2.8,0,0,1-2.384,1.277c-.655.017-1.311-.007-1.966.014a.51.51,0,0,0-.364.208,4.155,4.155,0,0,1-7.3-.016.467.467,0,0,0-.338-.193q-6.1-.015-12.208,0a.5.5,0,0,0-.353.225,4.161,4.161,0,0,1-7.282-.016.51.51,0,0,0-.364-.208c-.605-.021-1.212-.008-1.818-.01a2.963,2.963,0,0,1-3.018-2.388.7.7,0,0,0-.061-.13v-4.963c.031-.091.065-.181.092-.273a2.932,2.932,0,0,1,2.173-2.161q.893-.243,1.8-.446a2.007,2.007,0,0,0,1.365-1.041c.884-1.569,1.784-3.128,2.68-4.69a5.357,5.357,0,0,1,4.959-2.869q4.748,0,9.5,0a5.356,5.356,0,0,1,4.959,2.87c.871,1.519,1.75,3.034,2.6,4.563a2.016,2.016,0,0,0,1.606,1.1c.624.078,1.246.186,1.863.311a5.281,5.281,0,0,1,4.347,4.508.575.575,0,0,0,.058.131Zm-3.132-5.778.03-.111a7.307,7.307,0,0,0-1.019-.415,13.285,13.285,0,0,0-1.89-.357,3.628,3.628,0,0,1-3.092-2.088c-.753-1.456-1.615-2.856-2.431-4.28a4.171,4.171,0,0,0-3.866-2.233c-3.167,0-6.333.01-9.5,0a4.239,4.239,0,0,0-3.978,2.3c-.88,1.558-1.784,3.1-2.662,4.66a3.169,3.169,0,0,1-2.111,1.61c-.612.146-1.226.291-1.83.466a4.935,4.935,0,0,0-.729.343l.041.106c.355,0,.71-.007,1.064,0a.6.6,0,0,1,.629.811c-.177.731-.362,1.459-.55,2.187a.616.616,0,0,1-.709.554c-.353,0-.706,0-1.077,0,0,.632-.008,1.211,0,1.79a1.677,1.677,0,0,0,1.411,1.7,17.005,17.005,0,0,0,2.168.019,4.176,4.176,0,0,1,3.964-4.723,4.071,4.071,0,0,1,2.956,1.066,4.176,4.176,0,0,1,1.348,3.677h11.918a4.214,4.214,0,0,1,4.033-4.753,4.229,4.229,0,0,1,4.254,4.76c.678,0,1.36.05,2.031-.014a1.5,1.5,0,0,0,1.418-1.181,16.78,16.78,0,0,0,.159-2.35c-.322,0-.545.008-.767,0a2.97,2.97,0,0,1-2.831-2.805c-.016-.5.2-.736.7-.744C1240.256-1460.758,1240.562-1460.754,1240.868-1460.754Zm-28.93,6.509a2.97,2.97,0,0,0,2.931,2.971,2.976,2.976,0,0,0,3.005-2.974,2.97,2.97,0,0,0-2.951-2.951A2.97,2.97,0,0,0,1211.938-1454.244Zm23.151-2.954a2.969,2.969,0,0,0-2.964,2.975,2.971,2.971,0,0,0,2.952,2.95,2.976,2.976,0,0,0,2.984-3A2.969,2.969,0,0,0,1235.089-1457.2Zm5.495-2.371a1.723,1.723,0,0,0,2.1,1.121c-.142-.318-.267-.637-.43-.935a.432.432,0,0,0-.313-.178C1241.5-1459.58,1241.057-1459.569,1240.584-1459.569Zm-32.67,1.177.279-1.151h-.978v1.151Z" transform="translate(0 0)" fill="#2fa4ff"/>
      <path id="Path_20406" data-name="Path 20406" d="M1283.085-1446.351c-1.409,0-2.817,0-4.226,0-.3,0-.571-.02-.738-.312a.693.693,0,0,1,.107-.759c.91-1.51,1.813-3.023,2.726-4.532a2.951,2.951,0,0,1,2.67-1.509q1.872-.005,3.744,0c.559,0,.765.2.765.753q0,2.812,0,5.624c0,.526-.213.732-.748.733Q1285.235-1446.348,1283.085-1446.351Zm3.847-5.926c-1.095,0-2.156.011-3.217,0a1.913,1.913,0,0,0-1.8,1.019c-.664,1.125-1.344,2.242-2.016,3.363-.061.1-.115.209-.187.341h7.217Z" transform="translate(-64.916 -16.18)" fill="#2fa4ff"/>
      <path id="Path_20407" data-name="Path 20407" d="M1393.193-1452.271v4.711h7.237c-.235-.391-.461-.765-.684-1.14a2.34,2.34,0,0,1-.215-.388.554.554,0,0,1,.256-.73.51.51,0,0,1,.729.136c.528.833,1.038,1.678,1.52,2.538a.556.556,0,0,1-.436.783,1.985,1.985,0,0,1-.37.015h-8.383c-.678,0-.849-.173-.849-.856q0-2.721,0-5.442c0-.63.184-.812.817-.813q1.817,0,3.635,0a3.226,3.226,0,0,1,3.091,2.133.567.567,0,0,1-.238.741.564.564,0,0,1-.783-.176c-.151-.21-.272-.441-.41-.66a1.793,1.793,0,0,0-1.293-.839,2.131,2.131,0,0,0-.333-.014Z" transform="translate(-167.591 -16.186)" fill="#2fa4ff"/>
      <path id="Path_20408" data-name="Path 20408" d="M1279.2-1374.449c-.161,0-.322,0-.482,0-.432-.009-.7-.241-.693-.6s.263-.574.674-.582c.346-.006.693-.007,1.039,0a.6.6,0,0,1,.656.6c-.006.348-.263.572-.675.583C1279.551-1374.446,1279.378-1374.449,1279.2-1374.449Z" transform="translate(-64.902 -86.305)" fill="#2fa4ff"/>
      <path id="Path_20409" data-name="Path 20409" d="M1393.19-1374.476c-.2,0-.4.012-.593,0a.586.586,0,0,1-.567-.574.578.578,0,0,1,.577-.6c.407-.016.817-.017,1.224,0a.577.577,0,0,1,.568.572.587.587,0,0,1-.578.6C1393.611-1374.464,1393.4-1374.476,1393.19-1374.476Z" transform="translate(-167.62 -86.28)" fill="#2fa4ff"/>
      <path id="Path_20410" data-name="Path 20410" d="M1281.581-1313.948a1.785,1.785,0,0,1-1.781,1.793,1.785,1.785,0,0,1-1.777-1.759,1.785,1.785,0,0,1,1.782-1.792A1.782,1.782,0,0,1,1281.581-1313.948Zm-1.189.024a.6.6,0,0,0-.575-.6.6.6,0,0,0-.607.565.6.6,0,0,0,.593.615A.6.6,0,0,0,1280.392-1313.924Z" transform="translate(-64.895 -140.306)" fill="#2fa4ff"/>
      <path id="Path_20411" data-name="Path 20411" d="M1485.581-1313.953a1.785,1.785,0,0,1-1.777,1.8,1.785,1.785,0,0,1-1.782-1.754,1.785,1.785,0,0,1,1.777-1.8A1.782,1.782,0,0,1,1485.581-1313.953Zm-1.189.009a.6.6,0,0,0-.6-.577.6.6,0,0,0-.587.585.6.6,0,0,0,.613.6A.6.6,0,0,0,1484.392-1313.944Z" transform="translate(-248.707 -140.305)" fill="#2fa4ff"/>
    </g>
  </g>
</svg>
