<svg xmlns="http://www.w3.org/2000/svg" width="42" height="42" viewBox="0 0 42 42">
  <g id="Group_3367" data-name="Group 3367" transform="translate(2533 1909)">
    <rect id="Rectangle_2774" data-name="Rectangle 2774" width="42" height="42" transform="translate(-2533 -1909)" fill="none"/>
    <g id="Group_3361" data-name="Group 3361" transform="translate(-3240.449 -339.272)">
      <path id="Path_20396" data-name="Path 20396" d="M743.237-1542.754a1.323,1.323,0,0,1-.591.76c-.074.042-.1.227-.093.344a4.435,4.435,0,0,1-2.28,4.25,4.316,4.316,0,0,1-4.738-.073,4.428,4.428,0,0,1-2.15-4.288.336.336,0,0,0-.089-.263,1.121,1.121,0,0,1-.5-1.289,4.069,4.069,0,0,1,1.616-2.505c.053-.041.1-.083.173-.14l-.326-.684c-.587.765-1.147,1.494-1.705,2.225q-1.184,1.547-2.365,3.1a2.2,2.2,0,0,1-1.944.962c-.484-.021-.969,0-1.454,0-.333,0-.536-.177-.529-.445s.206-.427.52-.43c.514,0,1.028-.014,1.541,0a1.2,1.2,0,0,0,1.044-.473c1.479-1.917,2.948-3.842,4.464-5.821-.493,0-.931-.011-1.367.01-.076,0-.156.131-.217.213-1.052,1.439-2.117,2.87-3.144,4.327a1.815,1.815,0,0,1-1.64.837c-2.336-.023-4.672,0-7.008-.016-.27,0-.383.08-.415.339a5.88,5.88,0,0,1-.131.583h1.149q1.9,0,3.81,0c.359,0,.579.2.542.49a.444.444,0,0,1-.5.385c-.552,0-1.105.013-1.658,0-.2,0-.278.055-.335.252a4.609,4.609,0,0,1-4.625,3.35,4.563,4.563,0,0,1-4.279-3.629,8.025,8.025,0,0,1-.062-1.616c0-.152.01-.253-.133-.366a1.182,1.182,0,0,1-.348-1.195,3.6,3.6,0,0,1,2.256-2.818,6.245,6.245,0,0,1,2.1-.544c.49-.047.493-.046.506-.606-.2,0-.4,0-.6,0-.872-.01-1.747.022-2.615-.043a1.55,1.55,0,0,1-1.5-1.674c0-.582-.005-1.163,0-1.745a1.458,1.458,0,0,1,1.561-1.567c.126,0,.253.012.378,0a1.933,1.933,0,0,1,1.768.674.932.932,0,0,0,.775.312c.911-.019,1.822-.011,2.734,0,.4,0,.647.363.433.657a.587.587,0,0,1-.409.209c-1.018.017-2.036.011-3.053.007a1.261,1.261,0,0,1-.995-.474c-.526-.654-1.217-.524-1.894-.453a.475.475,0,0,0-.414.521c-.008.669-.011,1.338,0,2.006a.67.67,0,0,0,.6.652,2.605,2.605,0,0,0,.492.04q5.075,0,10.149,0h.284v-2.291h-1.987c-.388,0-.776,0-1.163,0-.3,0-.481-.166-.488-.422a.441.441,0,0,1,.492-.453c1.047,0,2.094,0,3.141-.006a.456.456,0,0,0,.308-.095,4.265,4.265,0,0,1,2.339-1.265,7.617,7.617,0,0,1,4.542.253c.232.09.45.218.7.338v-1.367l-1.1-.072c-.261-.017-.523-.023-.782-.056a1.257,1.257,0,0,1-1.115-1.333,1.223,1.223,0,0,1,1.242-1.173c.649-.01,1.3,0,1.948,0h.323c-.183-.42-.339-.8-.521-1.173-.031-.064-.17-.1-.261-.106-.523-.01-1.047,0-1.57-.005a.969.969,0,0,1-1.077-1.054c0-.339,0-.679,0-1.018a.951.951,0,0,1,1.2-.973c.634.17,1.292.25,1.939.371a1,1,0,0,1,.966,1.177,2.172,2.172,0,0,1-.151,1.007.631.631,0,0,0-.022.72,4.668,4.668,0,0,1,.224.5,1.233,1.233,0,0,0,.659.771,1.335,1.335,0,0,1,.716,1.276c.009.388,0,.775,0,1.163,0,.094,0,.188,0,.218.817-.01,1.6-.034,2.379-.023a.931.931,0,0,1,.906.923q.021,1.294,0,2.588a.967.967,0,0,1-1.043.945c-.734,0-1.467-.024-2.221-.038a2.96,2.96,0,0,0,.389,2.111c.048.069.217.089.324.078a6.015,6.015,0,0,1,3.5.609,4.593,4.593,0,0,1,2.445,2.918c0,.016.025.028.037.041Zm-16.3-5.692h6.992c0-.682-.035-1.342.01-2a1.262,1.262,0,0,0-.838-1.345,4.841,4.841,0,0,0-.731-.275,7.149,7.149,0,0,0-3.336-.079,3.766,3.766,0,0,0-1.831.822c-.11.1-.251.24-.255.366C726.924-1550.123,726.935-1549.291,726.935-1548.446Zm4.389.908c-1.556,0-3.039,0-4.521.006a.427.427,0,0,0-.262.146q-1.587,1.7-3.162,3.414a.386.386,0,0,0-.09.274c.026.217.088.43.139.664h2.685a1.706,1.706,0,0,1,1-1.752,1.72,1.72,0,0,1,1.959.343l1.115-1.536h-.42c-.533,0-1.067.006-1.6-.005a.438.438,0,0,1-.454-.433.45.45,0,0,1,.452-.438c.077-.006.155,0,.233,0,.737,0,1.474,0,2.21,0a.422.422,0,0,0,.283-.092A6.8,6.8,0,0,0,731.325-1547.538Zm4.314-3.779q0-1.671,0-3.343a1.81,1.81,0,0,0-.019-.348.516.516,0,0,0-.509-.474c-.988-.013-1.977-.011-2.965-.006a.332.332,0,0,0-.354.347.36.36,0,0,0,.309.4,5.859,5.859,0,0,0,.665.06c.484.029.968.048,1.451.082s.587.156.587.634c0,2.055,0,4.109,0,6.164a1.138,1.138,0,0,0,.105.47q1.366,2.87,2.746,5.734c.025.052.048.106.078.156.115.191.286.174.459.111a.3.3,0,0,0,.2-.395,2.252,2.252,0,0,0-.136-.32c-.827-1.771-1.658-3.54-2.477-5.315a1.545,1.545,0,0,1-.137-.611C735.632-1549.088,735.639-1550.2,735.639-1551.317Zm4.815,9.452c.081,1.774-.863,2.961-2.375,3.019a2.431,2.431,0,0,1-1.85-.691,2.523,2.523,0,0,1-.746-2.331H734.31a3.628,3.628,0,0,0,1.562,3.58,3.707,3.707,0,0,0,4.229-.031,3.626,3.626,0,0,0,1.52-3.547Zm-25.592-.283a3.61,3.61,0,0,0,1.15,3.534,3.532,3.532,0,0,0,3.894.684,3.628,3.628,0,0,0,2.18-2.433c-.344,0-.636.02-.923-.006a.456.456,0,0,0-.495.284,2.5,2.5,0,0,1-2.963,1.116,2.506,2.506,0,0,1-1.7-2.668c.019-.168.047-.334.072-.511Zm22.538-3.93a.877.877,0,0,0,.022.159c.47,1.009.939,2.019,1.417,3.024a.263.263,0,0,0,.188.132c1.018.007,2.036.005,3.054,0,.226,0,.319-.136.27-.346a2.694,2.694,0,0,0-.191-.576,4.18,4.18,0,0,0-3.4-2.325C738.319-1546.07,737.866-1546.055,737.4-1546.077Zm-19.976,3.036.631-2.992a.418.418,0,0,0-.093-.025c-.144.014-.289.025-.432.047a4.243,4.243,0,0,0-2.58,1.257,2.347,2.347,0,0,0-.614,1.409c-.013.136-.047.306.19.3C715.483-1543.043,716.44-1543.041,717.424-1543.041Zm1.862-4.48c-.022.074-.05.146-.065.219q-.439,2.072-.875,4.145c-.089.426-.186.851-.252,1.281a.5.5,0,0,0,.379.624.552.552,0,0,0,.633-.425c.018-.055.034-.111.047-.167q.347-1.513.692-3.026c.2-.876.4-1.752.6-2.65Zm6.141.037c-.037-.031-.044-.042-.051-.042-1.289,0-2.578-.011-3.867-.005a.262.262,0,0,0-.19.156c-.092.344-.162.694-.243,1.062a4.565,4.565,0,0,1,1.766,1.619Zm13.51-3.811c0-.358-.011-.717,0-1.074.01-.222-.076-.284-.287-.277-.4.013-.794-.01-1.19.009a4.334,4.334,0,0,0-.709.113c-.172.038-.24.154-.236.342.012.522,0,1.045,0,1.568s.08.622.606.656,1.064.016,1.6.026c.163,0,.218-.07.215-.229C738.931-1550.541,738.937-1550.918,738.937-1551.3Zm-2.811,8.535-1.148-2.39c-.151.13-.274.225-.384.333a3.165,3.165,0,0,0-.932,1.642c-.042.2-.049.411.243.414C734.629-1542.756,735.353-1542.76,736.126-1542.76Zm-15.253-2.665-.539,2.363h2.193A3.461,3.461,0,0,0,720.872-1545.425Zm18.5,3.508-.081.073v.2a1.21,1.21,0,0,1-.953,1.2,1.175,1.175,0,0,1-1.393-.619c-.107-.206-.2-.42-.307-.625a1,1,0,0,0-.16-.181.841.841,0,0,0-.117.206,1.61,1.61,0,0,0,.686,1.669,1.65,1.65,0,0,0,1.833,0,1.617,1.617,0,0,0,.687-1.7C739.544-1541.777,739.437-1541.842,739.369-1541.917Zm-7.492-17.932c0,.381.007.736,0,1.091,0,.179.065.235.238.232.493-.008.986,0,1.478,0,.685,0,.69,0,.625-.7a.29.29,0,0,0-.169-.209C733.34-1559.583,732.629-1559.709,731.877-1559.849Zm-12.121,19.486c-.437,0-.834.015-1.23,0a1.331,1.331,0,0,1-1.3-1.21,5.827,5.827,0,0,1,0-.639.949.949,0,0,0-.353.867,1.617,1.617,0,0,0,1.165,1.561A1.549,1.549,0,0,0,719.756-1540.363Zm8.739-3.362a.814.814,0,0,0-1.047-.249.768.768,0,0,0-.406.915C727.657-1542.973,728.237-1542.967,728.5-1543.725Z" fill="#2fa4ff"/>
    </g>
  </g>
</svg>
