<svg xmlns="http://www.w3.org/2000/svg" width="42" height="42" viewBox="0 0 42 42">
  <g id="Group_3381" data-name="Group 3381" transform="translate(1899 1700)">
    <rect id="Rectangle_2778" data-name="Rectangle 2778" width="42" height="42" transform="translate(-1899 -1700)" fill="none"/>
    <g id="Group_3362" data-name="Group 3362" transform="translate(-2653 -624.6)">
      <path id="Path_20397" data-name="Path 20397" d="M756-1057.712a.983.983,0,0,1,.878-.35q8.516.008,17.032,0h.533v-.462c0-1.9.038-3.811-.012-5.714a1.921,1.921,0,0,1,2.148-2.165c2.523.042,5.046.012,7.57.012.1,0,.2,0,.3,0a.588.588,0,0,1,.626.555c0,.317-.234.531-.615.555l-.29.016c.04.124.069.228.107.329.773,2.017,1.551,4.033,2.317,6.053a.5.5,0,0,0,.453.352q2.708.435,5.412.894A1.748,1.748,0,0,1,794-1055.8q.008,3.525,0,7.05a1.189,1.189,0,0,1-1.324,1.333c-.135,0-.27,0-.441,0a4.785,4.785,0,0,1-2.039,3.893,4.59,4.59,0,0,1-2.9.854,4.772,4.772,0,0,1-4.545-4.717H769.019a4.717,4.717,0,0,1-1.837,3.723,4.6,4.6,0,0,1-2.963,1,4.8,4.8,0,0,1-4.689-4.751c-.414,0-.833-.024-1.248,0a2,2,0,0,1-2.281-1.4Zm27.424-6.3c-.138-.365-.265-.659-.358-.963-.074-.243-.2-.311-.456-.309-2,.012-4.008.006-6.011.006-.885,0-1.042.155-1.042,1.031q0,6.791,0,13.581c0,.582-.168.842-.543.851s-.57-.261-.571-.861q0-2.894,0-5.789v-.455h-17.3a.581.581,0,0,0-.023.1q0,3.785,0,7.57a.65.65,0,0,0,.721.714c.457.016.917-.023,1.372.013.386.031.546-.1.671-.475a4.682,4.682,0,0,1,5.507-2.964,4.625,4.625,0,0,1,3.378,3.129c.066.189.129.308.376.308q6.753-.013,13.507,0c.218,0,.294-.088.365-.273a7.638,7.638,0,0,1,.45-1.012,4.731,4.731,0,0,1,5.809-1.937,4.7,4.7,0,0,1,2.7,2.927c.068.2.144.325.382.295a3.983,3.983,0,0,1,.5,0v-3.055c-.191,0-.351.005-.511,0a1.76,1.76,0,0,1-1.835-1.889c0-.47,0-.94,0-1.41,0-.621.167-.786.8-.79.516,0,1.032,0,1.542,0,.059-.537-.111-.774-.612-.86-1.352-.231-2.71-.428-4.056-.684a18.58,18.58,0,0,0-3.831-.329c-1.682.03-3.364.015-5.046,0a1.728,1.728,0,0,1-1.875-1.872c-.011-1.286-.006-2.573,0-3.859,0-.544.194-.733.742-.735,1.6,0,3.191,0,4.787,0Zm-15.535,16.661a3.61,3.61,0,0,0-3.574-3.632,3.637,3.637,0,0,0-3.633,3.547,3.663,3.663,0,0,0,3.566,3.662A3.638,3.638,0,0,0,767.888-1047.348Zm19.615-3.633a3.614,3.614,0,0,0-3.61,3.562,3.64,3.64,0,0,0,3.571,3.648,3.66,3.66,0,0,0,3.636-3.591A3.633,3.633,0,0,0,787.5-1050.981Zm-8.947-11.914c-.008.16-.019.28-.019.4q0,1.482,0,2.964c0,.695.184.876.882.877q2.835,0,5.67,0c.117,0,.234-.012.391-.021-.511-1.33-1.014-2.614-1.492-3.907a.427.427,0,0,0-.486-.32c-1.519.011-3.039.005-4.558.005Zm14.3,10.206v-1.845h-1.228c0,.429-.018.836.006,1.24a.566.566,0,0,0,.533.57C792.384-1052.7,792.606-1052.7,792.856-1052.688Z" fill="#2fa4ff"/>
      <path id="Path_20398" data-name="Path 20398" d="M789.042-949.866h-6.524c-.59,0-.876-.19-.865-.57s.28-.543.854-.543q6.542,0,13.084,0a2.211,2.211,0,0,1,.405.029.489.489,0,0,1,.43.521.488.488,0,0,1-.418.53,2.427,2.427,0,0,1-.479.033Q792.285-949.864,789.042-949.866Z" transform="translate(-23.268 -104.692)" fill="#2fa4ff"/>
      <path id="Path_20399" data-name="Path 20399" d="M990.748-949.866c-1.149,0-2.3,0-3.446,0-.44,0-.669-.181-.686-.512a.5.5,0,0,1,.416-.567,1.9,1.9,0,0,1,.4-.031q3.28,0,6.559,0a2.391,2.391,0,0,1,.405.028.5.5,0,0,1,.436.52.5.5,0,0,1-.423.531,2.3,2.3,0,0,1-.442.032Q992.36-949.864,990.748-949.866Z" transform="translate(-209.179 -104.691)" fill="#2fa4ff"/>
      <path id="Path_20400" data-name="Path 20400" d="M1090.094-949.757c-.205-.011-.442-.007-.672-.042a.487.487,0,0,1-.438-.515.475.475,0,0,1,.451-.536,11.349,11.349,0,0,1,1.367,0,.479.479,0,0,1,.458.533.5.5,0,0,1-.472.527C1090.568-949.767,1090.345-949.769,1090.094-949.757Z" transform="translate(-302.033 -104.79)" fill="#2fa4ff"/>
      <path id="Path_20401" data-name="Path 20401" d="M824.822-884.294a2.341,2.341,0,0,1-2.261,2.181,2.353,2.353,0,0,1-2.353-1.912,2.321,2.321,0,0,1,2.122-2.748c.43-.02.674.143.71.473s-.179.579-.62.629a1.181,1.181,0,0,0-1.1.9,1.206,1.206,0,0,0,.933,1.514,1.218,1.218,0,0,0,1.447-1c.008-.049.005-.1.013-.148.062-.416.278-.621.618-.592S824.84-884.717,824.822-884.294Z" transform="translate(-58.207 -162.93)" fill="#2fa4ff"/>
      <path id="Path_20402" data-name="Path 20402" d="M1069.719-884.468a2.323,2.323,0,0,1,2.165-2.3c.424-.02.671.144.714.474s-.2.567-.625.631a1.211,1.211,0,0,0-1.139,1.151,1.221,1.221,0,0,0,1.087,1.281,1.238,1.238,0,0,0,1.341-1.019c.117-.6.292-.791.665-.734s.516.371.417.951a2.338,2.338,0,0,1-2.416,1.916A2.331,2.331,0,0,1,1069.719-884.468Z" transform="translate(-284.559 -162.93)" fill="#2fa4ff"/>
    </g>
  </g>
</svg>
