<svg xmlns="http://www.w3.org/2000/svg" width="42" height="42" viewBox="0 0 42 42">
  <g id="Group_3383" data-name="Group 3383" transform="translate(1614 1745)">
    <rect id="Rectangle_2780" data-name="Rectangle 2780" width="42" height="42" transform="translate(-1614 -1745)" fill="none"/>
    <g id="Group_3365" data-name="Group 3365" transform="translate(-3561.667 -307.095)">
      <path id="Path_20412" data-name="Path 20412" d="M1949.667-1425.562a.878.878,0,0,1,.8-.343c.816.014,1.633,0,2.449.01a.549.549,0,0,1,.6.563.558.558,0,0,1-.588.541c-.16.01-.321,0-.482,0h-1.65v8.692h22.782v-8.692h-18.373a2.943,2.943,0,0,1-.481-.021.5.5,0,0,1-.455-.542.5.5,0,0,1,.434-.524,1.828,1.828,0,0,1,.369-.025h18.81c.685,0,.838.151.838.824q0,4.657,0,9.314c0,.644-.168.809-.817.809H1970.7v.733h6.265v-1.331c-.293,0-.585.005-.876,0-.455-.011-.663-.211-.665-.659q-.007-2.1,0-4.193c0-.431.208-.625.643-.634.294-.006.587,0,.922,0,0-.491,0-.945,0-1.4,0-.6.173-.787.763-.788,2.1,0,4.2,0,6.307,0a.889.889,0,0,1,.763.364c.859,1.087,1.741,2.155,2.59,3.248a1.24,1.24,0,0,1,.244.7c.018,2.362.011,4.725.01,7.088,0,.583-.169.753-.745.755-.532,0-1.064.009-1.6,0-.212,0-.293.063-.345.277a2.6,2.6,0,0,1-1.221,1.655c-.373.226-.7.189-.88-.1s-.09-.587.279-.834a1.6,1.6,0,0,0,.774-1.675,1.555,1.555,0,0,0-1.242-1.276,1.578,1.578,0,0,0-1.784.875,1.6,1.6,0,0,0,.447,1.94c.087.069.186.122.277.186a.559.559,0,0,1,.222.768.567.567,0,0,1-.811.172,2.534,2.534,0,0,1-1.294-1.64c-.075-.3-.2-.354-.477-.351-1.039.014-2.078.012-3.117,0-.224,0-.313.061-.374.289a2.705,2.705,0,0,1-2.639,2.042,2.723,2.723,0,0,1-2.624-2.067c-.022-.082-.054-.161-.081-.238h-.637c0,.315.007.609,0,.9a.554.554,0,0,1-.62.618q-1.911.01-3.822,0a.557.557,0,0,1-.619-.622c-.008-.294,0-.589,0-.879-.309-.089-.465-.059-.555.282a2.688,2.688,0,0,1-2.63,2,2.717,2.717,0,0,1-2.61-2.035c-.023-.083-.048-.165-.085-.291a5.509,5.509,0,0,0-.649.009.322.322,0,0,0-.216.182,2.747,2.747,0,0,1-2.686,2.134,2.725,2.725,0,0,1-2.656-2.22.711.711,0,0,0-.049-.106c-.72,0-1.459-.012-2.2.006a.718.718,0,0,1-.733-.39v-2.375a.84.84,0,0,1,.789-.363c.9.016,1.8.006,2.7.006h.537v-.762c-1.1,0-2.171-.01-3.242.006a.814.814,0,0,1-.783-.371Zm36.866,7.191h-.412c-1.372,0-2.745,0-4.118,0a1.06,1.06,0,0,1-1.149-1.127c-.01-.321,0-.643,0-.965,0-1,.361-1.36,1.365-1.361h1.913l.031-.149a1.942,1.942,0,0,0-.489-.134c-1.731-.01-3.462-.007-5.193-.005-.12,0-.239.013-.349.02v9.907c.449,0,.87-.009,1.289,0a.366.366,0,0,0,.409-.265,3.166,3.166,0,0,1,.521-.844,2.709,2.709,0,0,1,4.509.772c.053.122.153.31.242.316.475.031.952.015,1.429.015v-1.4c-.668-.047-.9-.192-.9-.563s.215-.52.908-.6Zm-16.987,3.449h-14.692v.7h14.692Zm5.209,3.444a1.617,1.617,0,0,0-1.614-1.6,1.607,1.607,0,0,0-1.588,1.622,1.6,1.6,0,0,0,1.611,1.594A1.607,1.607,0,0,0,1974.755-1411.478Zm-21.025.027a1.594,1.594,0,0,0,1.614,1.59,1.616,1.616,0,0,0,1.592-1.621,1.629,1.629,0,0,0-1.624-1.595A1.606,1.606,0,0,0,1953.729-1411.451Zm7.785,1.589a1.614,1.614,0,0,0,1.658-1.552,1.625,1.625,0,0,0-1.553-1.662,1.607,1.607,0,0,0-1.648,1.52A1.6,1.6,0,0,0,1961.514-1409.862Zm2.3-3.2a5.7,5.7,0,0,0,.317.65.467.467,0,0,0,.311.211c1.952.013,3.9.01,5.856.005.087,0,.219-.033.251-.093.131-.243.23-.5.349-.773Zm22.237-6.437c-.48-.744-.908-1.45-1.942-1.226a4.117,4.117,0,0,1-.851.009H1982v1.217Zm-32.972,6.443H1950.8v.864c.594,0,1.171.005,1.747-.007a.308.308,0,0,0,.207-.155C1952.868-1412.566,1952.959-1412.793,1953.075-1413.052Zm23.889-3.631v-3.218h-.4v3.218Zm-11.109,6.023h2.808v-.384h-2.808Zm11.113-2.4h-1.563c.117.266.218.512.335.751a.23.23,0,0,0,.167.11c.351.01.7.005,1.061.005Zm-17.651.012h-1.724c.3.247.086.814.7.883C1959.024-1412.078,1959.085-1412.589,1959.318-1413.043Z" transform="translate(0 0)" fill="#2fa4ff"/>
      <path id="Path_20413" data-name="Path 20413" d="M1982.828-1401.938q0,1.317,0,2.634a1.682,1.682,0,0,1-.017.332.526.526,0,0,1-.572.471.5.5,0,0,1-.516-.525q-.01-2.913,0-5.825a.51.51,0,0,1,.535-.542.533.533,0,0,1,.561.523c.024.295.01.593.011.89Q1982.829-1402.958,1982.828-1401.938Z" transform="translate(-28.872 -18.48)" fill="#2fa4ff"/>
      <path id="Path_20414" data-name="Path 20414" d="M2089.287-1401.93c0,.916,0,1.831,0,2.746,0,.429-.219.69-.56.686s-.551-.265-.552-.7q0-2.765,0-5.53c0-.436.209-.679.561-.676s.549.244.55.686C2089.289-1403.785,2089.287-1402.857,2089.287-1401.93Z" transform="translate(-124.776 -18.473)" fill="#2fa4ff"/>
      <path id="Path_20415" data-name="Path 20415" d="M2159.253-1401.928c0-.928,0-1.856,0-2.783,0-.445.2-.683.548-.686s.562.241.563.676q0,2.765,0,5.53c0,.43-.216.693-.553.7s-.556-.256-.557-.687C2159.25-1400.1,2159.253-1401.012,2159.253-1401.928Z" transform="translate(-188.809 -18.475)" fill="#2fa4ff"/>
      <path id="Path_20416" data-name="Path 20416" d="M2018.216-1401.945c0,.915,0,1.831,0,2.746,0,.437-.2.693-.544.7s-.566-.258-.567-.683q0-2.765,0-5.53c0-.439.2-.685.552-.689s.558.234.559.674C2018.218-1403.8,2018.216-1402.873,2018.216-1401.945Z" transform="translate(-60.75 -18.47)" fill="#2fa4ff"/>
      <path id="Path_20417" data-name="Path 20417" d="M2053.819-1401.986q0,1.3,0,2.6a2.141,2.141,0,0,1-.019.37.517.517,0,0,1-.568.473.5.5,0,0,1-.517-.525c-.013-.606-.009-1.212-.009-1.818,0-1.3,0-2.6,0-3.9,0-.475.292-.739.687-.639.337.085.424.346.424.655Q2053.82-1403.377,2053.819-1401.986Z" transform="translate(-92.824 -18.433)" fill="#2fa4ff"/>
      <path id="Path_20418" data-name="Path 20418" d="M2124.8-1401.959c0,.964.008,1.929,0,2.893a.549.549,0,0,1-.553.575.573.573,0,0,1-.549-.586c-.006-.074,0-.148,0-.222v-5.3c0-.074,0-.149,0-.222a.541.541,0,0,1,.559-.565.522.522,0,0,1,.542.576C2124.809-1403.864,2124.8-1402.911,2124.8-1401.959Z" transform="translate(-156.773 -18.48)" fill="#2fa4ff"/>
      <path id="Path_20419" data-name="Path 20419" d="M2274.356-1286.318a.559.559,0,0,1,.557.6.564.564,0,0,1-.561.6.555.555,0,0,1-.551-.607A.545.545,0,0,1,2274.356-1286.318Z" transform="translate(-292.002 -125.75)" fill="#2fa4ff"/>
      <path id="Path_20420" data-name="Path 20420" d="M2181.541-1286.318a.557.557,0,0,1,.56.6.564.564,0,0,1-.556.607.556.556,0,0,1-.556-.6A.548.548,0,0,1,2181.541-1286.318Z" transform="translate(-208.391 -125.75)" fill="#2fa4ff"/>
      <path id="Path_20421" data-name="Path 20421" d="M2001.223-1285.693a.542.542,0,0,1,.534-.617.558.558,0,0,1,.577.586.57.57,0,0,1-.545.62A.546.546,0,0,1,2001.223-1285.693Z" transform="translate(-46.445 -125.757)" fill="#2fa4ff"/>
      <path id="Path_20422" data-name="Path 20422" d="M2064.145-1285.7a.543.543,0,0,1,.542-.611.559.559,0,0,1,.57.592.568.568,0,0,1-.551.614A.55.55,0,0,1,2064.145-1285.7Z" transform="translate(-103.13 -125.755)" fill="#2fa4ff"/>
    </g>
  </g>
</svg>
