<svg xmlns="http://www.w3.org/2000/svg" width="42" height="42" viewBox="0 0 42 42">
  <g id="Group_3380" data-name="Group 3380" transform="translate(2169 1724)">
    <rect id="Rectangle_2777" data-name="Rectangle 2777" width="42" height="42" transform="translate(-2169 -1724)" fill="none"/>
    <g id="Group_3366" data-name="Group 3366" transform="translate(-4070.271 -934.005)">
      <path id="Path_20423" data-name="Path 20423" d="M1938.488-762.211a3.4,3.4,0,0,1,.122,1.989,3.245,3.245,0,0,1-2.758,2.414,3.174,3.174,0,0,1-3.166-1.636.626.626,0,0,0-.663-.375q-8.452.013-16.9.009c-.56,0-1.134.073-1.378-.667a3.567,3.567,0,0,1-1.182,1.954,3.185,3.185,0,0,1-2.114.731c-1.455-.023-2.522-.9-3.117-2.6a.759.759,0,0,1-.924.581c-.273-.019-.549-.008-.824,0a.651.651,0,0,1-.678-.476,8.011,8.011,0,0,1-.621-3.35c.07-1.183.008-2.373.021-3.56a1.7,1.7,0,0,1,.128-.765,19.065,19.065,0,0,0,1.3-4.127c.322-1.153.619-2.313.908-3.475.1-.385.137-.783.194-1.177a3.989,3.989,0,0,1,3.884-3.452q8.527-.032,17.054,0a2.968,2.968,0,0,1,2.862,2.412,1.986,1.986,0,0,0,.321.735q1.879,2.617,3.787,5.213a3.66,3.66,0,0,1,.75,2.3c-.017.937,0,1.874,0,2.811v.382a5.429,5.429,0,0,1,3.367,1.352,5.2,5.2,0,0,1,1.317,1.8c.263.591.007.974-.65.979C1939.195-762.209,1938.87-762.211,1938.488-762.211Zm-23.995-11.979c0,1.677-.005,3.312.009,4.946a.632.632,0,0,0,.216.4,4.5,4.5,0,0,1,1.585,3.681,1.734,1.734,0,0,0,1.262,1.674,1.791,1.791,0,0,0,2.321-1.73c.011-2.908,0-5.816,0-8.724a1.985,1.985,0,0,0-.03-.246Zm-9,10.4c.11-.154.159-.224.208-.292s.114-.164.178-.241a5.209,5.209,0,0,1,5.293-1.969,5.186,5.186,0,0,1,4.154,3.821.6.6,0,0,1-.61.861c-.08,0-.16.012-.247.019a.767.767,0,0,0,.865.594c2.173-.03,4.346-.013,6.519-.013h.408v-7.169h-1.178c0,1.04.018,2.051,0,3.061a2.991,2.991,0,0,1-2.981,2.907,2.957,2.957,0,0,1-3-3.033,3.472,3.472,0,0,0-1.365-2.857.5.5,0,0,0-.3-.1q-3.672-.009-7.344,0c-.09,0-.232.026-.26.084a2.223,2.223,0,0,0-.325.821C1905.476-766.165,1905.5-765.029,1905.5-763.792Zm.781-5.637h7.014v-.347c0-1.4-.007-2.8.006-4.193a.509.509,0,0,0-.285-.49,2.635,2.635,0,0,1-.691-.711.449.449,0,0,0-.441-.241c-.861.008-1.722,0-2.583,0h-1.456Zm1.768-7.178c1.344,0,2.667,0,3.989-.006a.308.308,0,0,0,.217-.147,1.952,1.952,0,0,1,1.914-1.051q7.36.018,14.72.006h.477a1.915,1.915,0,0,0-.093-.245,1.844,1.844,0,0,0-1.738-.957q-6.5.007-13,0c-1.261,0-2.522-.012-3.783.005A2.784,2.784,0,0,0,1908.047-776.606Zm15.46,4.871c.088-.013.161-.022.233-.036a1.8,1.8,0,0,1,2.144,1.7c.014.349,0,.7,0,1.049,0,.268,0,.537,0,.793h1.772v-8.356h-4.153Zm5.406,3.542v7.157h1.074c.012-.208.015-.394.036-.578a4.264,4.264,0,0,1,.095-.553,5.266,5.266,0,0,1,3.88-4.01c.107-.031.27-.138.273-.216.023-.594.013-1.19.013-1.8Zm9.708,4.782a4.068,4.068,0,0,0-4.851-1.432c-1.578.622-2.8,2.471-2.516,3.813a.679.679,0,0,0,.106.016c1.742,0,1.793.147,2.878-1.36a2.416,2.416,0,0,1,2.091-1.038C1937.08-763.407,1937.829-763.411,1938.623-763.411Zm-24.75.583c-.4-1.349-2.226-2.446-3.944-2.378-1.512.06-3.274,1.255-3.5,2.378Zm20.434-6.6c-.03-.28-.058-.536-.085-.792-.032-.3-.177-.409-.494-.4-.7.028-1.4.012-2.1.007a1.774,1.774,0,0,1-1.781-1.325c-.158-.5-.3-1-.453-1.5-.146-.481-.295-.961-.442-1.442l-.035.015v5.437Zm-6.636,2.419c-.775,0-1.522,0-2.27,0-.489,0-.706-.222-.71-.712-.005-.725,0-1.449,0-2.174,0-.44-.236-.709-.6-.709s-.6.269-.6.71q-.005,1.93,0,3.86a1.411,1.411,0,0,0,.03.207h4.148Zm-4.173,5.966h1.192c0-.51,0-1.006,0-1.5,0-.691.172-.865.856-.865h2.115v-1.17H1923.5Zm-1.88-15.548a2,2,0,0,1-.341,1.738.891.891,0,0,0-.177.495c-.013,1.535-.008,3.069-.007,4.6,0,.108.013.215.02.317h1.15v-7.154Zm-10.18,14.994c.209.7.112,1.135-.31,1.438a1.043,1.043,0,0,1-1.2.015c-.435-.295-.534-.713-.337-1.45h-.992a1.974,1.974,0,0,0,.747,2.229,2,2,0,0,0,2.378-.029,1.949,1.949,0,0,0,.7-2.2Zm4.221-15.006v1.2c1.406,0,2.813.005,4.219,0a.587.587,0,0,0,.609-.581.579.579,0,0,0-.581-.606C1918.487-776.609,1917.069-776.6,1915.658-776.6Zm18.057,16.513a1.979,1.979,0,0,0,2.737.853,2.02,2.02,0,0,0,.783-2.778c-.043-.071-.112-.178-.169-.179-.436-.006-.873.011-1.309.021l-.038.117a1.068,1.068,0,0,1,.791,1.241.973.973,0,0,1-.816.828,1.079,1.079,0,0,1-1.225-.678Zm-.445-11.719-3.508-4.822c-.024.071-.042.1-.036.115.427,1.432.841,2.867,1.3,4.288a.767.767,0,0,0,.551.4A16.662,16.662,0,0,0,1933.27-771.809Zm-5.606,10.79v-1.165h-1.744v1.165Zm-13.756-14.39a.605.605,0,0,0,.582-.6.6.6,0,0,0-.631-.591.606.606,0,0,0-.563.622A.6.6,0,0,0,1913.908-775.409Zm-8.269,13.811.465.585.428-.585Z" transform="translate(0)" fill="#2fa4ff"/>
      <path id="Path_20424" data-name="Path 20424" d="M1952.607-718.936v-1.154h2.352v1.154Z" transform="translate(-43.495 -54.097)" fill="#2fa4ff"/>
      <path id="Path_20425" data-name="Path 20425" d="M1955.092-696.07v1.153h-2.352v-1.153Z" transform="translate(-43.615 -75.711)" fill="#2fa4ff"/>
    </g>
  </g>
</svg>
