<svg xmlns="http://www.w3.org/2000/svg" width="42" height="42" viewBox="0 0 42 42">
  <g id="Group_3382" data-name="Group 3382" transform="translate(1746 1745)">
    <rect id="Rectangle_2779" data-name="Rectangle 2779" width="42" height="42" transform="translate(-1746 -1745)" fill="none"/>
    <g id="Group_3363" data-name="Group 3363" transform="translate(-1959.365 -982.34)">
      <path id="Path_20403" data-name="Path 20403" d="M246.483-712.135c-.689,2.027-1.959,3.058-3.743,3.072s-3.085-1.014-3.808-3.072h-.381c-3.067,0-6.135,0-9.2-.007-.286,0-.416.066-.5.359a3.769,3.769,0,0,1-3.687,2.72,3.8,3.8,0,0,1-3.637-2.8c-.024-.081-.053-.161-.09-.276-.625,0-1.255,0-1.885,0a3,3,0,0,1-3.178-3.182q-.006-6.154,0-12.308a3.014,3.014,0,0,1,3.2-3.208q12.543,0,25.087,0a6.737,6.737,0,0,1,6.795,5.735,6.757,6.757,0,0,1,.086,1.127q.01,4.346,0,8.692a2.975,2.975,0,0,1-2.527,3.1,16.629,16.629,0,0,1-2.005.044C246.832-712.133,246.663-712.135,246.483-712.135Zm2.309-15.324c-.184-.2-.282-.314-.394-.418a5.208,5.208,0,0,0-3.674-1.448q-8.967.006-17.934,0-3.671,0-7.341,0a1.466,1.466,0,0,0-1.574,1.539q-.006,6.32,0,12.639a1.429,1.429,0,0,0,1.307,1.5c.747.059,1.5.013,2.248.013.642-1.91,1.879-2.976,3.506-3.052a3.827,3.827,0,0,1,2.264.563,3.9,3.9,0,0,1,1.755,2.506h.387c3.068,0,6.136,0,9.2.007a.444.444,0,0,0,.518-.386,3.774,3.774,0,0,1,3.416-2.689,3.8,3.8,0,0,1,3.771,2.4c.084.212.146.433.221.659.718,0,1.423.015,2.128-.005a1.43,1.43,0,0,0,1.125-.592,2.7,2.7,0,0,0,.288-1.828h-.449c-.463,0-.926.015-1.387-.013a.728.728,0,0,1-.713-.77.755.755,0,0,1,.737-.717c.157-.011.316,0,.475,0H250v-2.422H220.714c-.711,0-.975-.258-.979-.96,0-.584,0-1.169,0-1.753,0-1.291,0-2.582,0-3.872,0-.621.275-.889.89-.9.134,0,.268,0,.4,0h27.763ZM225.763-721.5v-4.441h-4.506v4.441Zm1.555-4.453v4.452h4.5v-4.452Zm10.57.013h-4.509v4.44h4.509Zm6.057,4.444v-4.447h-4.5v4.447Zm1.554-4.467v4.463h4.482c0-1.112.017-2.2-.011-3.294a3.431,3.431,0,0,0-.231-.952.367.367,0,0,0-.266-.208C248.16-725.964,246.847-725.959,245.5-725.959Zm-5.118,13.077a2.34,2.34,0,0,0,2.31,2.335,2.353,2.353,0,0,0,2.345-2.343,2.351,2.351,0,0,0-2.335-2.316A2.342,2.342,0,0,0,240.381-712.882Zm-12.86.01A2.342,2.342,0,0,0,225.2-715.2a2.345,2.345,0,0,0-2.327,2.326,2.345,2.345,0,0,0,2.327,2.326A2.339,2.339,0,0,0,227.521-712.873Z" transform="translate(0 -20.598)" fill="#2fa4ff"/>
      <path id="Path_20404" data-name="Path 20404" d="M305.343-752.175q-3.451,0-6.9,0c-.534,0-.85-.279-.855-.736a.715.715,0,0,1,.659-.739,3.131,3.131,0,0,1,.328-.008h13.583c.109,0,.22,0,.328.007a.728.728,0,0,1,.679.726.743.743,0,0,1-.664.744,3.288,3.288,0,0,1-.365.007Z" transform="translate(-73.297)" fill="#2fa4ff"/>
    </g>
  </g>
</svg>
